<svg width="376" height="338" viewBox="0 0 376 338" fill="none" xmlns="http://www.w3.org/2000/svg">
<g filter="url(#filter0_ddd_3_200)">
<rect x="109" y="105" width="158" height="120" rx="10" fill="white"/>
</g>
<path d="M212.226 135.613H164.82C164.372 135.613 163.923 135.987 163.923 136.511V192.665C163.923 193.113 164.297 193.562 164.82 193.562L194.954 193.562C195.252 193.562 195.477 193.188 195.328 192.89C192.262 187.954 192.486 181.449 196.449 176.664C197.271 175.617 198.244 174.795 199.29 174.047C199.664 173.822 199.44 173.299 199.066 173.299L168.11 173.299C168.036 173.299 167.961 173.225 167.961 173.149V139.427C167.961 139.352 168.035 139.277 168.11 139.277H208.861C208.936 139.277 209.011 139.352 209.011 139.427V171.355C209.011 171.579 209.161 171.729 209.385 171.729C210.432 171.879 211.479 172.177 212.525 172.626C212.824 172.776 213.124 172.551 213.124 172.252V136.511C213.124 135.988 212.75 135.614 212.227 135.614L212.226 135.613Z" fill="#C8C8C8"/>
<path d="M212.226 135.613H164.82C164.372 135.613 163.923 135.987 163.923 136.511V192.665C163.923 193.113 164.297 193.562 164.82 193.562L194.954 193.562C195.252 193.562 195.477 193.188 195.328 192.89C192.262 187.954 192.486 181.449 196.449 176.664C197.271 175.617 198.244 174.795 199.29 174.047C199.664 173.822 199.44 173.299 199.066 173.299L168.11 173.299C168.036 173.299 167.961 173.225 167.961 173.149V139.427C167.961 139.352 168.035 139.277 168.11 139.277H208.861C208.936 139.277 209.011 139.352 209.011 139.427V171.355C209.011 171.579 209.161 171.729 209.385 171.729C210.432 171.879 211.479 172.177 212.525 172.626C212.824 172.776 213.124 172.551 213.124 172.252V136.511C213.124 135.988 212.75 135.614 212.227 135.614L212.226 135.613Z" fill="#C8C8C8"/>
<path d="M183.316 153.833L188.907 148.241L195.502 154.836L189.911 160.428L183.316 153.833Z" fill="#C8C8C8"/>
<path d="M192.138 162.967C191.656 163.449 190.875 163.449 190.393 162.967C189.911 162.485 189.911 161.704 190.393 161.222L196.298 155.317C196.78 154.835 197.561 154.835 198.043 155.317C198.524 155.799 198.524 156.58 198.043 157.062L192.138 162.967Z" fill="#C8C8C8"/>
<path d="M182.52 153.349C182.038 153.831 181.257 153.831 180.775 153.349C180.293 152.867 180.293 152.086 180.775 151.604L186.68 145.699C187.162 145.218 187.943 145.218 188.425 145.699C188.907 146.181 188.907 146.962 188.425 147.444L182.52 153.349Z" fill="#C8C8C8"/>
<path d="M185.965 156.481L187.262 157.778L177.867 167.172C177.509 167.53 176.926 167.528 176.567 167.169C176.388 166.99 176.3 166.757 176.3 166.522C176.3 166.287 176.391 166.054 176.57 165.875L185.965 156.481Z" fill="#C8C8C8"/>
<path d="M183.953 167.429C183.953 166.095 185.044 164.996 186.389 164.996H198.134C199.479 164.996 200.57 166.095 200.57 167.429H183.953Z" fill="#C8C8C8"/>
<path d="M214.245 176.963C209.534 173.074 202.505 173.748 198.617 178.458C194.729 183.169 195.402 190.198 200.113 194.086C204.824 197.974 211.852 197.3 215.74 192.59C219.629 187.88 218.956 180.851 214.245 176.963ZM212.151 179.505C214.918 181.748 215.74 185.561 214.319 188.702C214.245 188.851 214.021 188.926 213.871 188.776L202.73 179.58C202.58 179.43 202.58 179.206 202.73 179.131C205.571 177.187 209.385 177.262 212.151 179.505L212.151 179.505ZM202.207 191.618C199.44 189.375 198.618 185.562 200.038 182.422C200.113 182.272 200.337 182.197 200.487 182.347L211.703 191.544C211.853 191.694 211.853 191.918 211.703 191.992C208.861 193.936 204.974 193.862 202.207 191.618H202.207Z" fill="#C8C8C8"/>
<defs>
<filter id="filter0_ddd_3_200" x="0.426277" y="0.769226" width="375.147" height="337.147" filterUnits="userSpaceOnUse" color-interpolation-filters="sRGB">
<feFlood flood-opacity="0" result="BackgroundImageFix"/>
<feColorMatrix in="SourceAlpha" type="matrix" values="0 0 0 0 0 0 0 0 0 0 0 0 0 0 0 0 0 0 127 0" result="hardAlpha"/>
<feOffset dy="4.34295"/>
<feGaussianBlur stdDeviation="54.2869"/>
<feComposite in2="hardAlpha" operator="out"/>
<feColorMatrix type="matrix" values="0 0 0 0 0.595833 0 0 0 0 0.595833 0 0 0 0 0.595833 0 0 0 0.25 0"/>
<feBlend mode="normal" in2="BackgroundImageFix" result="effect1_dropShadow_3_200"/>
<feColorMatrix in="SourceAlpha" type="matrix" values="0 0 0 0 0 0 0 0 0 0 0 0 0 0 0 0 0 0 127 0" result="hardAlpha"/>
<feOffset dy="3.93525"/>
<feGaussianBlur stdDeviation="5"/>
<feComposite in2="hardAlpha" operator="out"/>
<feColorMatrix type="matrix" values="0 0 0 0 0.908333 0 0 0 0 0.908333 0 0 0 0 0.908333 0 0 0 0.25 0"/>
<feBlend mode="normal" in2="effect1_dropShadow_3_200" result="effect2_dropShadow_3_200"/>
<feColorMatrix in="SourceAlpha" type="matrix" values="0 0 0 0 0 0 0 0 0 0 0 0 0 0 0 0 0 0 127 0" result="hardAlpha"/>
<feOffset dy="4"/>
<feGaussianBlur stdDeviation="1"/>
<feComposite in2="hardAlpha" operator="out"/>
<feColorMatrix type="matrix" values="0 0 0 0 0.9125 0 0 0 0 0.9125 0 0 0 0 0.9125 0 0 0 0.25 0"/>
<feBlend mode="normal" in2="effect2_dropShadow_3_200" result="effect3_dropShadow_3_200"/>
<feBlend mode="normal" in="SourceGraphic" in2="effect3_dropShadow_3_200" result="shape"/>
</filter>
</defs>
</svg>
