<svg width="22" height="25" viewBox="0 0 22 25" fill="none" xmlns="http://www.w3.org/2000/svg">
<path d="M6.60626 16.1584C7.00197 16.3496 7.47773 16.1838 7.66891 15.7881C7.86009 15.3924 7.69429 14.9166 7.29859 14.7254C6.90288 14.5343 6.42712 14.7001 6.23594 15.0958C6.04476 15.4915 6.21056 15.9672 6.60626 16.1584Z" fill="#575757"/>
<path d="M8.72149 19.7254C9.48936 20.0964 10.4126 19.7747 10.7836 19.0068C11.1546 18.2389 10.8328 17.3157 10.065 16.9447C9.29709 16.5737 8.37386 16.8954 8.00287 17.6633C7.63188 18.4312 7.95362 19.3544 8.72149 19.7254Z" fill="#575757"/>
<path d="M15.3535 11.1218L17.5293 6.61839L18.0585 6.87408C18.4331 7.05504 18.8835 6.89808 19.0645 6.52351C19.2454 6.14891 19.0885 5.69851 18.7139 5.51754C18.5365 5.43181 11.5273 2.04538 11.0317 1.80595C10.6571 1.62498 10.2067 1.78195 10.0258 2.15651C9.84479 2.53108 10.0018 2.98148 10.3763 3.16245L10.9055 3.41814L8.72974 7.92159C1.76832 8.56705 -0.114643 18.1719 6.35274 21.2965C12.8288 24.4254 19.1741 16.9749 15.3535 11.1218ZM9.24151 9.39842C9.5214 9.38916 9.77301 9.22537 9.89482 8.97325L12.2621 4.07357L16.1727 5.96298L13.8055 10.8627C13.6837 11.1148 13.7118 11.4137 13.8784 11.6387C15.0548 13.2269 15.189 14.8731 14.8169 16.2646L10.5158 14.1866C10.8053 13.4928 10.504 12.683 9.81896 12.352L6.02487 10.519C6.83805 9.88053 7.90103 9.44287 9.24151 9.39842ZM7.00814 19.94C3.58417 18.2857 3.09516 14.3112 4.94219 11.669L9.09449 13.6752C8.80492 14.3689 9.1063 15.1788 9.7913 15.5097L14.2403 17.6592C12.8616 20.0657 9.91467 21.3443 7.00814 19.94Z" fill="#575757"/>
</svg>
